# xmcd
#
# Track frame offsets:
#	150
#	18382
#	34250
#	49831
#	64772
#	82477
#	93726
#	110113
#	123608
#	135807
#
# Disc length: 1958 seconds
#
# Revision: 0
# Processed by: cddbd v1.5.1PL0 Copyright (c) Steve Scherf et al.
# Submitted via: audiograbber 1.80
#
DISCID=9007a40a
DTITLE=Paul Johansen - Gone With The Wind
DYEAR=1900
DGENRE=
TTITLE0=Gone With The Wind
TTITLE1=Right Of Freedom
TTITLE2=Loser's Rodeo
TTITLE3=She's Hangin' Over The Bar
TTITLE4=If I Could Turn The Hands Of Time
TTITLE5=One Woman Kind Of Man
TTITLE6=Let Your Mind Flow
TTITLE7=Some Other Time
TTITLE8=The Only Time I Feel Free
TTITLE9=I'm In A Bad Mood
EXTD=
EXTT0=
EXTT1=
EXTT2=
EXTT3=
EXTT4=
EXTT5=
EXTT6=
EXTT7=
EXTT8=
EXTT9=
PLAYORDER=
